<svg width="23" height="23" viewBox="0 0 23 23" fill="none" xmlns="http://www.w3.org/2000/svg">
<path fill-rule="evenodd" clip-rule="evenodd" d="M0 11.5C0 5.14873 5.14873 0 11.5 0C17.8513 0 23 5.14873 23 11.5C23 17.8513 17.8513 23 11.5 23C5.14873 23 0 17.8513 0 11.5ZM11.5 5.75C14.6625 5.75 17.25 8.3375 17.25 11.5C17.25 14.375 15.1656 16.8188 12.2906 17.25V13.1531H13.6562L13.9437 11.5H12.3625V10.4219C12.3625 9.99062 12.5781 9.55937 13.2969 9.55937H14.0156V8.12187C14.0156 8.12187 13.3688 7.97813 12.7219 7.97813C11.4281 7.97813 10.5656 8.76875 10.5656 10.2063V11.5H9.12813V13.1531H10.5656V17.1781C7.83437 16.7469 5.75 14.375 5.75 11.5C5.75 8.3375 8.3375 5.75 11.5 5.75Z" fill="#4CE0D7"/>
</svg>
