<svg width="23" height="23" viewBox="0 0 23 23" fill="none" xmlns="http://www.w3.org/2000/svg">
<path d="M11.5 13.5125C10.4219 13.5125 9.4875 12.65 9.4875 11.5C9.4875 10.4219 10.35 9.4875 11.5 9.4875C12.5781 9.4875 13.5125 10.35 13.5125 11.5C13.5125 12.5781 12.5781 13.5125 11.5 13.5125Z" fill="#4CE0D7"/>
<path fill-rule="evenodd" clip-rule="evenodd" d="M13.9437 6.6125H9.05625C8.48125 6.68437 8.19375 6.75625 7.97813 6.82812C7.69063 6.9 7.475 7.04375 7.25938 7.25937C7.08875 7.43 7.00814 7.60062 6.9107 7.80685C6.88502 7.8612 6.8581 7.91817 6.82812 7.97812C6.81701 8.01148 6.80417 8.04656 6.79041 8.08415C6.71521 8.28958 6.6125 8.5702 6.6125 9.05625V13.9437C6.68438 14.5187 6.75625 14.8062 6.82812 15.0219C6.9 15.3094 7.04375 15.525 7.25938 15.7406C7.43 15.9112 7.60062 15.9919 7.80685 16.0893C7.86125 16.115 7.91812 16.1419 7.97813 16.1719C8.01148 16.183 8.04656 16.1958 8.08415 16.2096C8.28958 16.2848 8.5702 16.3875 9.05625 16.3875H13.9437C14.5187 16.3156 14.8063 16.2437 15.0219 16.1719C15.3094 16.1 15.525 15.9562 15.7406 15.7406C15.9112 15.57 15.9919 15.3994 16.0893 15.1931C16.115 15.1388 16.1419 15.0819 16.1719 15.0219C16.183 14.9885 16.1958 14.9534 16.2096 14.9158C16.2848 14.7104 16.3875 14.4298 16.3875 13.9437V9.05625C16.3156 8.48125 16.2437 8.19375 16.1719 7.97812C16.1 7.69062 15.9562 7.475 15.7406 7.25937C15.57 7.08875 15.3994 7.00814 15.1931 6.9107C15.1388 6.88504 15.0818 6.85807 15.0219 6.82812C14.9885 6.817 14.9534 6.80416 14.9158 6.7904C14.7104 6.71521 14.4298 6.6125 13.9437 6.6125ZM11.5 8.40937C9.775 8.40937 8.40938 9.775 8.40938 11.5C8.40938 13.225 9.775 14.5906 11.5 14.5906C13.225 14.5906 14.5906 13.225 14.5906 11.5C14.5906 9.775 13.225 8.40937 11.5 8.40937ZM15.3812 8.3375C15.3812 8.73445 15.0595 9.05625 14.6625 9.05625C14.2655 9.05625 13.9437 8.73445 13.9437 8.3375C13.9437 7.94054 14.2655 7.61875 14.6625 7.61875C15.0595 7.61875 15.3812 7.94054 15.3812 8.3375Z" fill="#4CE0D7"/>
<path fill-rule="evenodd" clip-rule="evenodd" d="M0 11.5C0 5.14873 5.14873 0 11.5 0C17.8513 0 23 5.14873 23 11.5C23 17.8513 17.8513 23 11.5 23C5.14873 23 0 17.8513 0 11.5ZM9.05625 5.53437H13.9437C14.5906 5.60625 15.0219 5.67812 15.3812 5.82187C15.8125 6.0375 16.1 6.18125 16.4594 6.54062C16.8188 6.9 17.0344 7.25937 17.1781 7.61875C17.3219 7.97812 17.4656 8.40937 17.4656 9.05625V13.9437C17.3937 14.5906 17.3219 15.0219 17.1781 15.3812C16.9625 15.8125 16.8188 16.1 16.4594 16.4594C16.1 16.8187 15.7406 17.0344 15.3812 17.1781C15.0219 17.3219 14.5906 17.4656 13.9437 17.4656H9.05625C8.40938 17.3937 7.97813 17.3219 7.61875 17.1781C7.1875 16.9625 6.9 16.8187 6.54063 16.4594C6.18125 16.1 5.96563 15.7406 5.82188 15.3812C5.67813 15.0219 5.53437 14.5906 5.53437 13.9437V9.05625C5.60625 8.40937 5.67813 7.97812 5.82188 7.61875C6.0375 7.1875 6.18125 6.9 6.54063 6.54062C6.9 6.18125 7.25938 5.96562 7.61875 5.82187C7.97813 5.67812 8.40938 5.53437 9.05625 5.53437Z" fill="#4CE0D7"/>
</svg>
