<svg width="24" height="23" viewBox="0 0 24 23" fill="none" xmlns="http://www.w3.org/2000/svg">
<path fill-rule="evenodd" clip-rule="evenodd" d="M0 11.5C0 5.14873 5.37258 0 12 0C18.6274 0 24 5.14873 24 11.5C24 17.8513 18.6274 23 12 23C5.37258 23 0 17.8513 0 11.5ZM6.15 9.55938V17.25H8.7V9.55938H6.15ZM6 7.11563C6 7.90625 6.6 8.48125 7.425 8.48125C8.25 8.48125 8.85 7.90625 8.85 7.11563C8.85 6.325 8.25 5.75 7.425 5.75C6.675 5.75 6 6.325 6 7.11563ZM15.45 17.25H17.85V12.5063C17.85 10.1344 16.35 9.34375 14.925 9.34375C13.65 9.34375 12.75 10.1344 12.525 10.6375V9.55938H10.125V17.25H12.675V13.1531C12.675 12.075 13.425 11.5 14.175 11.5C14.925 11.5 15.45 11.8594 15.45 13.0812V17.25Z" fill="#4CE0D7"/>
</svg>
