<svg width="23" height="23" viewBox="0 0 23 23" fill="none" xmlns="http://www.w3.org/2000/svg">
<path fill-rule="evenodd" clip-rule="evenodd" d="M0 11.5C0 5.14873 5.14873 0 11.5 0C17.8513 0 23 5.14873 23 11.5C23 17.8513 17.8513 23 11.5 23C5.14873 23 0 17.8513 0 11.5ZM15.8844 8.26562C16.3875 8.19375 16.8188 8.12187 17.25 7.90625C16.9625 8.40938 16.5312 8.84062 16.0281 9.12813C16.1719 12.5062 13.7281 16.1719 9.34375 16.1719C8.05 16.1719 6.82812 15.7406 5.75 15.0938C6.97187 15.2375 8.26562 14.8781 9.12813 14.2312C8.05 14.2312 7.1875 13.5125 6.9 12.5781C7.25938 12.65 7.61875 12.5781 7.97813 12.5062C6.9 12.2188 6.10938 11.2125 6.10938 10.1344C6.46875 10.2781 6.82812 10.4219 7.1875 10.4219C6.18125 9.70312 5.82188 8.3375 6.46875 7.25938C7.69062 8.69688 9.41563 9.63125 11.3562 9.70312C10.9969 8.26562 12.1469 6.82812 13.6562 6.82812C14.3031 6.82812 14.95 7.11562 15.3812 7.54688C15.9562 7.40313 16.4594 7.25937 16.8906 6.97187C16.7469 7.54688 16.3875 7.97813 15.8844 8.26562Z" fill="#4CE0D7"/>
</svg>
