<svg width="23" height="23" viewBox="0 0 23 23" fill="none" xmlns="http://www.w3.org/2000/svg">
<path d="M13.3688 11.5L10.35 9.775V13.225L13.3688 11.5Z" fill="#4CE0D7"/>
<path fill-rule="evenodd" clip-rule="evenodd" d="M0 11.5C0 5.14873 5.14873 0 11.5 0C17.8513 0 23 5.14873 23 11.5C23 17.8513 17.8513 23 11.5 23C5.14873 23 0 17.8513 0 11.5ZM15.9563 7.69063C16.4594 7.83438 16.8188 8.19375 16.9625 8.69688C17.25 9.63125 17.25 11.5 17.25 11.5C17.25 11.5 17.25 13.3688 17.0344 14.3031C16.8906 14.8063 16.5312 15.1656 16.0281 15.3094C15.0937 15.525 11.5 15.525 11.5 15.525C11.5 15.525 7.83437 15.525 6.97187 15.3094C6.46875 15.1656 6.10938 14.8063 5.96563 14.3031C5.75 13.3688 5.75 11.5 5.75 11.5C5.75 11.5 5.75 9.63125 5.89375 8.69688C6.0375 8.19375 6.39688 7.83438 6.9 7.69063C7.83438 7.475 11.4281 7.475 11.4281 7.475C11.4281 7.475 15.0938 7.475 15.9563 7.69063Z" fill="#4CE0D7"/>
</svg>
